<svg width="9" height="7" viewBox="0 0 9 7" fill="none" xmlns="http://www.w3.org/2000/svg">
<path d="M9 5.47576C8.99861 5.71997 8.9475 5.96113 8.85001 6.18344C8.74781 6.42388 8.58104 6.62873 8.3696 6.77352C8.15816 6.91832 7.91099 6.99694 7.65763 7L1.34325 7C1.08988 6.99694 0.842718 6.91832 0.631279 6.77352C0.41984 6.62873 0.253061 6.42388 0.150861 6.18344C0.024849 5.90679 -0.0236856 5.59899 0.0107877 5.29513C0.045261 4.99126 0.161356 4.70355 0.345842 4.46478L3.50303 0.49863C3.62244 0.343099 3.77412 0.217496 3.94681 0.131165C4.11949 0.0448348 4.30873 1.58597e-07 4.50044 1.60883e-07C4.69214 1.63169e-07 4.88138 0.0448348 5.05407 0.131165C5.22675 0.217496 5.37844 0.343099 5.49784 0.49863L8.65503 4.46478C8.87861 4.75067 9.00042 5.10767 9 5.47576ZM1.50073 5.47576L7.42515 5.47576L4.50044 1.69625L1.50073 5.47576Z" fill="white"/>
</svg>
