<svg width="36" height="36" viewBox="0 0 36 36" fill="none" xmlns="http://www.w3.org/2000/svg">
<path d="M20.04 25.5C19.8379 25.4993 19.6381 25.4577 19.4525 25.3778C19.2669 25.2979 19.0994 25.1813 18.96 25.035L13.17 19.035C12.8952 18.7546 12.7412 18.3777 12.7412 17.985C12.7412 17.5924 12.8952 17.2154 13.17 16.935L19.17 10.935C19.3099 10.7952 19.4759 10.6842 19.6586 10.6085C19.8414 10.5329 20.0372 10.4939 20.235 10.4939C20.4328 10.4939 20.6286 10.5329 20.8114 10.6085C20.9941 10.6842 21.1601 10.7952 21.3 10.935C21.4399 11.0749 21.5508 11.2409 21.6265 11.4237C21.7022 11.6064 21.7411 11.8022 21.7411 12C21.7411 12.1978 21.7022 12.3937 21.6265 12.5764C21.5508 12.7591 21.4399 12.9252 21.3 13.065L16.35 18L21.12 22.95C21.3994 23.2311 21.5562 23.6113 21.5562 24.0075C21.5562 24.4038 21.3994 24.784 21.12 25.065C20.9781 25.2059 20.8094 25.3169 20.6239 25.3916C20.4385 25.4663 20.2399 25.5032 20.04 25.5Z" fill="white"/>
</svg>
