<svg width="125" height="40" viewBox="0 0 125 40" fill="none" xmlns="http://www.w3.org/2000/svg">
<path d="M33.3112 14.3636V26H35.6975V18.3977H35.7941L38.8055 25.9432H40.4305L43.4419 18.4261H43.5384V26H45.9248V14.3636H42.8907L39.6862 22.1818H39.5498L36.3453 14.3636H33.3112ZM61.045 20.1818C61.045 16.375 58.6813 14.2045 55.5961 14.2045C52.4938 14.2045 50.1472 16.375 50.1472 20.1818C50.1472 23.9716 52.4938 26.1591 55.5961 26.1591C58.6813 26.1591 61.045 23.9886 61.045 20.1818ZM58.5507 20.1818C58.5507 22.6477 57.3802 23.983 55.5961 23.983C53.8063 23.983 52.6416 22.6477 52.6416 20.1818C52.6416 17.7159 53.8063 16.3807 55.5961 16.3807C57.3802 16.3807 58.5507 17.7159 58.5507 20.1818ZM75.9606 20.1818C75.9606 16.375 73.597 14.2045 70.5117 14.2045C67.4095 14.2045 65.0629 16.375 65.0629 20.1818C65.0629 23.9716 67.4095 26.1591 70.5117 26.1591C73.597 26.1591 75.9606 23.9886 75.9606 20.1818ZM73.4663 20.1818C73.4663 22.6477 72.2958 23.983 70.5117 23.983C68.722 23.983 67.5572 22.6477 67.5572 20.1818C67.5572 17.7159 68.722 16.3807 70.5117 16.3807C72.2958 16.3807 73.4663 17.7159 73.4663 20.1818ZM84.308 26C87.8535 26 90.0012 23.8068 90.0012 20.1705C90.0012 16.5455 87.8535 14.3636 84.3421 14.3636H80.183V26H84.308ZM82.6433 23.892V16.4716H84.2115C86.3933 16.4716 87.5467 17.5852 87.5467 20.1705C87.5467 22.767 86.3933 23.892 84.2058 23.892H82.6433ZM96.6839 14.3636H94.2237V26H96.6839V14.3636ZM101.108 26H103.568V21.1932H108.301V19.1648H103.568V16.392H108.813V14.3636H101.108V26ZM112.186 14.3636L116.43 21.8864V26H118.873V21.8864L123.117 14.3636H120.362L117.708 19.375H117.595L114.941 14.3636H112.186Z" fill="white"/>
<path d="M13.5 12.0841C13.1448 12.0841 12.8571 12.376 12.8571 12.7364V27.0864C12.8571 27.4468 13.1448 27.7387 13.5 27.7387C13.8552 27.7387 14.1429 27.4468 14.1429 27.0864V12.7364C14.1429 12.376 13.8552 12.0841 13.5 12.0841ZM3.21429 16.9977C2.85909 16.9977 2.57143 17.2896 2.57143 17.65V22.8682C2.57143 23.2286 2.85909 23.5205 3.21429 23.5205C3.56948 23.5205 3.85714 23.2286 3.85714 22.8682V17.65C3.85714 17.29 3.56912 16.9977 3.21429 16.9977ZM18.6429 16.8705C18.2877 16.8705 18 17.1623 18 17.5227V22.7409C18 23.1013 18.2877 23.3932 18.6429 23.3932C18.9981 23.3932 19.2857 23.1013 19.2857 22.7409V17.5227C19.2857 17.1627 18.9981 16.8705 18.6429 16.8705ZM0.642857 18.3023C0.28766 18.3023 0 18.5942 0 18.9546V21.5636C0 21.924 0.28766 22.2159 0.642857 22.2159C0.998054 22.2159 1.28571 21.924 1.28571 21.5636V18.9546C1.28571 18.5945 0.997697 18.3023 0.642857 18.3023ZM23.6571 18.175C23.3019 18.175 23.0142 18.4669 23.0142 18.8273V21.4364C23.0142 21.7968 23.3019 22.0887 23.6571 22.0887C24.0123 22.0887 24.2999 21.7968 24.2999 21.4364V18.8273C24.2999 18.4672 24.0123 18.175 23.6571 18.175ZM8.35714 14.6932C8.00195 14.6932 7.71429 14.9851 7.71429 15.3455V25.7819C7.71429 26.1423 8.00195 26.4341 8.35714 26.4341C8.71234 26.4341 9 26.1423 9 25.7819V15.3455C9 14.9851 8.71198 14.6932 8.35714 14.6932ZM16.0714 14.6932C15.7162 14.6932 15.4286 14.9851 15.4286 15.3455V25.7819C15.4286 26.1423 15.7162 26.4341 16.0714 26.4341C16.4266 26.4341 16.7143 26.1423 16.7143 25.7819V15.3455C16.7143 14.9851 16.4266 14.6932 16.0714 14.6932ZM5.78571 13.0841C5.43052 13.0841 5.14286 13.376 5.14286 13.7364V26.7818C5.14286 27.1422 5.43052 27.4341 5.78571 27.4341C6.14091 27.4341 6.42857 27.1422 6.42857 26.7818V13.7364C6.42857 13.3763 6.14055 13.0841 5.78571 13.0841ZM10.9286 11C10.5734 11 10.2857 11.2919 10.2857 11.6523V28.6114C10.2857 28.9718 10.5734 29.2637 10.9286 29.2637C11.2838 29.2637 11.5714 28.9718 11.5714 28.6114V11.6523C11.5714 11.2919 11.2834 11 10.9286 11ZM21.1425 17.5227C20.7873 17.5227 20.4996 17.8146 20.4996 18.175V22.0887C20.4996 22.4491 20.7873 22.7409 21.1425 22.7409C21.4977 22.7409 21.7853 22.4491 21.7853 22.0887V18.175C21.7853 17.815 21.4977 17.5227 21.1425 17.5227Z" fill="white"/>
</svg>
