<svg width="36" height="36" viewBox="0 0 36 36" fill="none" xmlns="http://www.w3.org/2000/svg">
<path d="M30.075 16.5H5.925C5.13799 16.5 4.5 17.138 4.5 17.925V18.075C4.5 18.862 5.13799 19.5 5.925 19.5H30.075C30.862 19.5 31.5 18.862 31.5 18.075V17.925C31.5 17.138 30.862 16.5 30.075 16.5Z" fill="white"/>
<path d="M30.075 24H5.925C5.13799 24 4.5 24.638 4.5 25.425V25.575C4.5 26.362 5.13799 27 5.925 27H30.075C30.862 27 31.5 26.362 31.5 25.575V25.425C31.5 24.638 30.862 24 30.075 24Z" fill="white"/>
<path d="M30.075 9H5.925C5.13799 9 4.5 9.63799 4.5 10.425V10.575C4.5 11.362 5.13799 12 5.925 12H30.075C30.862 12 31.5 11.362 31.5 10.575V10.425C31.5 9.63799 30.862 9 30.075 9Z" fill="white"/>
</svg>
