<svg width="411" height="413" viewBox="0 0 411 413" fill="none" xmlns="http://www.w3.org/2000/svg">
<mask id="mask0" mask-type="alpha" maskUnits="userSpaceOnUse" x="0" y="0" width="411" height="413">
<rect width="411" height="413" fill="#C4C4C4"/>
</mask>
<g mask="url(#mask0)">
<path fill-rule="evenodd" clip-rule="evenodd" d="M283.195 -264.417C283.261 -278.302 309.633 -293.917 320.898 -301.967C343.173 -317.889 366.339 -332.593 389.291 -347.531C412.243 -362.469 435.257 -377.367 457.143 -393.767C471.354 -404.413 488.051 -416.403 497.689 -431.605C518.22 -464 453.487 -459.19 436.719 -459.898C394.063 -461.708 345.135 -460.882 305.151 -477.752C281.282 -487.823 271.764 -504.713 276.891 -529.329C278.543 -537.335 283.434 -546.548 279.291 -554.347C274.867 -562.676 264.688 -567.483 256.24 -570.706C225.427 -582.45 189.999 -583.81 157.397 -585.284C122.243 -586.904 86.7572 -586.43 51.8502 -586.556C37.0489 -586.608 21.5906 -591.82 7.49563 -596.056C-10.9824 -601.607 -29.2414 -607.843 -47.5665 -613.873C-87.881 -627.107 -129.422 -641.045 -172.075 -644.406C-198.786 -646.511 -227.98 -643.665 -248.73 -625.349C-259.148 -616.153 -264.601 -602.482 -270.624 -590.338C-277.915 -575.667 -284.917 -560.854 -292.68 -546.414C-317.685 -499.906 -353.385 -454.46 -411.33 -452.176C-420.096 -451.832 -428.705 -452.953 -437.43 -453.164C-442.986 -453.294 -447.931 -451.978 -449.997 -446.28C-455.189 -431.99 -438.868 -409.43 -432.175 -398.092C-417.523 -373.273 -400.999 -349.568 -385.52 -325.247C-375.279 -309.163 -357.553 -287.183 -357.367 -267.64C-357.202 -250.228 -380.831 -237.642 -393.695 -229.065C-405.749 -221.035 -427.59 -209.798 -428.912 -193.463C-429.552 -185.542 -424.223 -178.978 -418.659 -173.884C-408.905 -164.975 -397.669 -158.691 -388.895 -148.527C-374.507 -131.851 -362.485 -108.907 -364.439 -86.4371C-365.794 -70.8671 -374.858 -60.6707 -386.387 -50.9237C-391.233 -46.8257 -395.166 -43.9263 -395.422 -37.2732C-395.835 -26.7082 -391.613 -15.5278 -388.135 -5.73229C-375.692 29.3235 -358.02 63.2211 -338.36 94.8713C-328.537 110.688 -317.924 126.457 -304.899 139.949C-296.369 148.809 -284.864 159.354 -271.851 159.342C-256.785 159.342 -240.844 154.013 -226.199 150.028C-198.848 142.582 -171.827 133.972 -144.914 125.141C-82.6732 104.707 -21.0179 82.6192 40.0521 58.8761C83.0682 42.1237 126.997 25.347 167.44 3.07519C175.327 -1.29845 182.772 -6.39806 189.673 -12.1547C197.047 -18.2004 206.197 -20.9054 215.475 -22.922C273.061 -35.4388 336.15 -25.8295 393.976 -19.804C408.653 -18.2774 423.331 -16.7426 438.05 -15.6736C450.703 -14.7544 465.851 -12.1182 478.149 -16.0785C502.382 -23.8737 481.198 -52.6042 472.242 -64.3111C440.71 -105.53 400.028 -140.404 362.32 -176.006C344.391 -192.961 326.327 -209.871 309.373 -227.786C300.545 -237.1 283.137 -252.244 283.195 -264.417Z" stroke="#5BE7C3" stroke-opacity="0.8" stroke-width="5"/>
<path fill-rule="evenodd" clip-rule="evenodd" d="M272.328 -266.758C281.993 -281.451 298.95 -292.31 313.026 -302.531C333.282 -317.244 354.174 -331.139 374.752 -345.435C394.21 -358.954 413.71 -372.627 431.729 -387.98C442.717 -397.342 456.503 -408.538 461.708 -422.385C472.997 -452.398 412.263 -447.844 397.269 -448.63C359.995 -450.572 317.734 -451.018 283.25 -466.82C261.717 -476.688 252.87 -493.052 257.463 -515.772C259.05 -523.632 261.911 -530.343 258.29 -538.163C254.102 -547.213 244.47 -552.856 235.641 -556.839C207.981 -569.318 175.287 -571.969 145.304 -574.175C114.329 -576.453 82.0563 -578.06 52.0777 -576.393C40.0896 -575.729 26.2909 -579.497 14.4268 -582.387C-3.82825 -586.84 -21.8973 -591.976 -40.0613 -596.752C-76.9765 -606.467 -114.851 -615.825 -153.254 -616.889C-180.98 -617.658 -209.887 -613.489 -232.954 -597.376C-256.331 -581.035 -266.703 -555.705 -279.667 -531.626C-302.055 -489.996 -332.294 -439.381 -384.091 -430.585C-391.946 -429.25 -399.494 -429.974 -407.34 -429.646C-411.375 -429.48 -415.967 -428.954 -418.014 -425.056C-423.326 -414.937 -408.77 -396.435 -403.872 -388.684C-390.338 -367.264 -375.121 -346.893 -360.938 -325.885C-349.673 -309.205 -335.395 -290.671 -331.038 -270.898C-325.751 -246.904 -360.297 -229.831 -372.446 -212.936C-393.508 -183.64 -353.604 -166.947 -333.931 -152.979C-311.34 -136.942 -292.692 -107.686 -312.944 -82.8741C-320.691 -73.3865 -330.223 -67.732 -333.683 -55.3503C-339.095 -35.9865 -335.002 -13.8581 -330.612 5.28309C-323.998 34.0576 -313.531 62.5205 -299.302 88.5265C-289.108 107.146 -272.197 136.341 -247.431 134.151C-230.759 132.69 -213.81 127.351 -197.577 122.632C-173.27 115.569 -149.269 107.518 -125.396 99.1556C-70.2879 79.9051 -15.7875 58.6793 37.6423 35.3327C74.0986 19.3972 175.791 -45.7251 183.443 -48.0484C206.257 -54.9698 232.197 -53.7515 255.719 -52.6789C287.008 -51.2541 318.14 -47.5627 349.247 -44.1424C364.054 -42.5234 378.936 -40.5441 393.822 -39.7467C404.417 -39.18 418.331 -38.6943 427.612 -44.7293C445.726 -56.5039 425.545 -83.4449 417.199 -94.843C391.631 -129.786 359.288 -160.046 328.962 -190.986C314.08 -206.177 298.971 -221.343 285.462 -237.752C280.013 -244.378 266.355 -257.683 272.328 -266.758Z" stroke="#5ACEF2" stroke-width="5"/>
<path fill-rule="evenodd" clip-rule="evenodd" d="M258.957 -274.293C285.352 -303.695 321.782 -325.562 353.224 -350.118C369.004 -362.447 384.884 -375.111 398.495 -389.796C405.575 -397.432 414.416 -407.088 415.78 -417.732C419.426 -446.207 364.685 -442.357 348.301 -443.438C316.624 -445.535 280.839 -447.126 252.1 -461.657C234.542 -470.54 225.895 -485.12 229.177 -504.283C230.632 -512.785 232.897 -520.008 229.177 -528.357C225.408 -536.814 217.555 -542.782 209.602 -547.256C186.75 -560.123 158.35 -564.237 132.621 -567.302C102.438 -570.871 72.0278 -572.265 41.6362 -571.472C15.0183 -570.788 -11.4716 -578.484 -37.4613 -583.557C-71.8911 -590.274 -106.945 -596.141 -142.177 -595.254C-170.002 -594.55 -198.045 -589.015 -221.832 -574.306C-246.003 -559.326 -260.536 -536.903 -273.638 -512.708C-293.444 -476.132 -318.128 -427.117 -361.581 -413.226C-367.9 -411.202 -373.79 -410.979 -380.308 -410.627C-383.474 -410.457 -387.562 -410.404 -389.133 -407.169C-392.911 -399.379 -378.944 -384.277 -375.047 -379.014C-362.606 -362.212 -349.119 -346.167 -336.368 -329.587C-324.464 -314.108 -311.498 -297.978 -304.104 -279.84C-292.337 -250.952 -329.957 -234.061 -328.903 -206.533C-328.246 -189.443 -311.544 -177.188 -298.318 -168.709C-282.033 -158.284 -258.585 -151.429 -250.434 -132.404C-244.362 -118.234 -253.889 -109.986 -261.226 -99.2328C-273.659 -81.0134 -274.506 -56.316 -273.212 -35.226C-271.468 -6.72684 -264.652 22.1934 -253.05 48.3889C-247.793 60.2639 -241.353 72.6167 -231.872 81.8397C-222.99 90.4838 -214.582 92.6985 -202.712 90.9292C-166.373 85.5038 -129.682 70.3817 -94.8346 56.8751C-51.0514 39.9027 -7.87157 21.165 34.0187 0.0831676C62.5834 -14.294 91.7929 -29.5051 116.865 -49.3683C123.4 -54.5467 130.091 -60.1745 134.869 -67.0047C138.482 -72.1386 140.015 -76.3776 146.104 -79.3089C164.149 -87.9935 189.25 -85.7221 208.586 -84.8193C239.502 -83.3819 270.27 -79.5559 300.996 -76.1104C318.926 -74.086 352.703 -67.7173 367.02 -82.9933C379.379 -96.1841 364.466 -118.675 356.849 -130.295C337.579 -159.681 312.792 -185.471 289.795 -212.027C279.255 -224.198 268.302 -236.461 259.598 -249.992C257.374 -253.442 253.811 -258.013 253.2 -262.203C252.513 -267.005 255.717 -270.669 258.957 -274.293Z" stroke="#5BE7C3" stroke-opacity="0.8" stroke-width="5"/>
<path fill-rule="evenodd" clip-rule="evenodd" d="M256.688 -267.448C281.078 -293.445 310.461 -314.803 336.645 -339.13C348.385 -350.038 360.241 -361.48 369.187 -374.787C373.998 -381.942 379.108 -390.95 377.781 -399.843C373.974 -425.37 328.952 -423.065 310.763 -424.56C283.736 -426.756 252.687 -428.968 228.789 -442.732C213.134 -451.748 207.264 -465.062 210.187 -482.234C213.324 -500.654 206.309 -514.025 190.344 -524.301C170.328 -537.174 145.062 -542.421 121.821 -546.148C93.8212 -550.618 65.4663 -552.599 37.1024 -552.068C9.51726 -551.55 -17.208 -556.08 -44.6113 -559.025C-80.9437 -562.927 -118.442 -564.852 -154.365 -556.854C-185.642 -549.888 -213.892 -534.54 -235.07 -510.804C-257.19 -486.031 -268.141 -454.819 -286.102 -427.412C-297.305 -410.317 -312.927 -387.704 -333.861 -381.059C-340.843 -378.843 -353.567 -381.833 -347.99 -370.929C-344.803 -364.693 -338.838 -359.223 -334.125 -354.126C-326.511 -345.889 -318.644 -337.878 -310.901 -329.754C-294.399 -312.436 -276.727 -294.75 -264.358 -274.243C-248.774 -248.425 -271.94 -228.554 -269.116 -202.375C-267.599 -188.287 -257.604 -177.043 -247.029 -168.21C-240.188 -162.489 -232.701 -157.533 -225.058 -152.91C-217.075 -148.08 -207.63 -144.401 -200.668 -138.157C-190.747 -129.271 -195.054 -118.753 -196.915 -107.266C-200.189 -87.0783 -200.908 -66.572 -199.056 -46.2119C-196.791 -21.2564 -191.479 4.41218 -180.288 27.0905C-175.935 35.9196 -170.421 45.2794 -162.232 51.1992C-154.042 57.119 -145.572 56.7138 -136.188 54.9309C-108.355 49.6635 -80.5799 37.4066 -54.177 25.7899C-21.1311 11.2477 11.2659 -5.00438 42.2036 -23.4931C63.559 -36.2565 84.9847 -50.045 102.851 -67.3506C108.047 -72.3871 112.992 -77.7801 116.989 -83.8012C119.734 -87.93 121.206 -93.2583 125.182 -96.362C137.625 -106.05 162.606 -103.157 177.198 -102.594C206.321 -101.471 234.985 -96.1351 264.071 -94.8385C279.945 -94.1294 304.806 -92.3466 316.464 -105.592C327.426 -118.044 317.497 -137.655 310.945 -149.652C298.068 -173.242 280.768 -194.259 265.262 -216.188C258.887 -225.212 251.901 -234.652 247.771 -244.956C244.101 -254.138 250.438 -260.783 256.688 -267.448Z" stroke="#5ACEF2" stroke-width="5"/>
<path fill-rule="evenodd" clip-rule="evenodd" d="M250.689 -267.023C270.103 -289.9 293.506 -310.207 313.06 -333.456C324.506 -347.071 344.217 -369.959 335.365 -389.154C325.654 -410.246 291.804 -410.82 272.238 -412.52C248.95 -414.543 221.602 -417.306 201.673 -430.476C195.369 -434.64 190 -440.15 187.724 -447.409C185.287 -455.177 187.951 -461.975 188.298 -469.751C189.025 -486.065 179.087 -499.162 165.935 -508.157C147.348 -520.873 124.106 -526.886 102.152 -531.078C77.2797 -535.805 51.9946 -538.136 26.6586 -538.037C2.4455 -537.956 -21.5115 -538.482 -45.7493 -539.089C-77.4469 -539.898 -109.591 -538.591 -140.338 -530.341C-170.627 -522.209 -198.165 -506.967 -219.797 -484.548C-240.9 -462.671 -255.137 -435.93 -267.608 -408.692C-274.683 -393.232 -286.637 -370.129 -303.514 -362.32C-311.019 -358.845 -318.384 -359.083 -310.404 -350.044C-300.354 -338.663 -286.81 -329.531 -275.171 -319.796C-258.38 -305.748 -241.168 -291.425 -227.075 -274.723C-218.074 -264.057 -214.064 -253.708 -214.683 -239.898C-215.162 -229.379 -217.335 -218.968 -216.236 -208.408C-213.663 -183.622 -193.742 -166.624 -176.129 -150.796C-164.799 -140.616 -154.452 -132.852 -148.62 -118.371C-141.722 -101.256 -138.826 -82.6358 -134.217 -64.8654C-129.153 -45.3513 -123.304 -25.0522 -112.251 -7.86446C-102.412 7.43776 -90.4456 14.2999 -72.5357 10.177C-44.6011 3.7518 -17.0671 -12.0764 7.73253 -26.7191C32.9741 -41.6167 57.782 -58.3675 78.6989 -78.8446C89.9917 -89.9025 97.6993 -102.886 107.728 -114.766C120.343 -129.679 148.88 -124.031 165.84 -122.769C193.994 -120.673 282.581 -104.99 274.407 -155.785C270.995 -176.986 257.558 -196.553 247.732 -215.262C243.659 -223.026 237.765 -232.344 236.844 -241.242C235.84 -250.932 244.853 -260.137 250.689 -267.023Z" stroke="#FF8062" stroke-width="5"/>
<path fill-rule="evenodd" clip-rule="evenodd" d="M-137.483 269.721C-103.838 289.726 -65.8039 306.239 -29.9376 323.024C22.4763 347.548 75.6625 371.413 130.736 389.683C160.263 399.475 198.525 413.592 230.208 405.921C241.791 403.116 252.355 394.635 262.741 389.124C277.063 381.525 291.595 374.303 306.103 367.064C335.205 352.554 364.397 338.189 393 322.748C406.772 315.311 420.136 305.944 434.474 299.599C442.853 295.889 452.88 297.625 461.833 297.859C482.572 298.406 503.299 299.442 524.026 300.324C549.378 301.4 574.788 302.545 600.169 302.12C611.617 301.926 639.653 303.917 645.955 294.254C649.346 289.051 641.355 279.667 637.65 275.326C630.849 267.346 623.031 260.156 615.317 253.038C597.477 236.578 578.53 220.902 562.672 202.516C554.524 193.064 543.849 181.516 549.168 168.612C554.536 155.579 563.836 144.293 569.511 131.305C576.044 116.358 578.753 100.804 581.838 84.9541C584.121 73.24 589.44 62.8612 594.441 52.0615C599.967 40.1249 605.691 28.0871 609.527 15.499C612.063 7.18378 616.155 -7.77547 607.285 -13.0397C594.681 -20.5254 571.047 -14.4641 556.68 -12.2588C536.824 -9.21597 517.113 -5.33956 497.311 -2.00134C482.936 0.426446 468.511 3.08889 453.896 3.37213C430.336 3.82937 406.698 2.24726 383.2 0.774399C339.69 -1.95282 296.491 -5.65116 252.834 -5.65116C214.586 -5.65116 126.197 37.7133 105.508 45.3487C64.2109 60.5912 21.8156 75.0406 -17.2636 95.3208C-27.8356 100.812 -44.1066 108.127 -49.6692 119.429C-53.101 126.393 -51.5235 130.419 -59.6176 134.906C-70.6604 141.028 -84.8087 143.432 -97.0326 146.171C-116.719 150.581 -136.558 154.316 -156.335 158.31C-196.335 166.366 -236.062 175.478 -275.897 184.247C-287.94 186.897 -302.509 187.484 -313.99 192.153C-321.39 195.152 -320.622 198.927 -314.894 203.483C-304.846 211.479 -290.764 215.917 -278.896 220.478C-261.505 227.158 -243.83 233.118 -226.147 238.994C-208.464 244.869 -190.69 250.562 -172.998 256.449C-161.311 260.326 -147.985 263.478 -137.483 269.721Z" stroke="#FF8062" stroke-width="5"/>
<path fill-rule="evenodd" clip-rule="evenodd" d="M-109.796 265.321C-74.2074 285.367 -34.7026 301.336 3.38124 316.916C52.122 336.869 101.966 355.569 153.321 368.042C183.474 375.36 219.051 383.44 249.861 375.048C260.852 372.053 269.064 365.323 278.485 359.382C289.225 352.603 300.378 346.391 311.53 340.277C334.488 327.691 357.688 315.535 381.13 303.808C393.547 297.572 407.215 289.22 421.242 287.056C432.395 285.334 445.063 287.826 456.265 288.552C476.439 289.856 496.609 291.202 516.79 292.344C540.079 293.661 563.433 294.877 586.771 294.666C599.778 294.549 622.108 296.49 631.306 288.252C639.332 281.063 610.112 255.065 604.974 250.125C588.927 234.703 572.049 220.018 557.113 203.526C548.286 193.801 537.538 181.973 533.817 169.083C530.649 158.098 536.762 145.581 540.372 135.427C544.887 122.707 548.53 109.521 553.776 97.0693C558.447 85.9747 565.882 76.0916 572.413 66.0059C579.596 54.9112 586.87 43.6342 592.202 31.5306C595.47 24.0828 600.877 11.6104 594.383 4.51111C586.882 -3.67414 563.759 1.6747 554.255 2.8417C534.973 5.24055 515.84 8.80638 496.691 11.9994C464.886 17.2996 434.563 21.9352 402.175 20.8249C359.998 19.3743 317.862 15.9623 275.693 14.0741C260.121 13.369 244.301 11.9508 228.716 12.7166C219.782 13.1583 212.979 15.8327 207.783 21.8663C200.686 30.1002 184.342 34.6588 172.974 39.3836C155.25 46.7462 137.303 53.5943 119.405 60.5315C80.1149 75.7674 40.069 90.4522 2.8071 110.158C-8.98155 116.39 -22.4803 123.339 -31.1999 133.636C-36.0657 139.377 -34.8389 144.908 -37.8088 151.011C-41.7411 159.038 -54.6698 162.661 -62.3981 165.287C-77.3136 170.36 -92.8404 173.76 -108.247 176.944C-143.109 184.149 -178.054 188.886 -213.482 192.375C-221.784 193.185 -254.478 195.993 -237.307 209.527C-218.335 224.484 -190.941 231.814 -168.607 240.242C-148.487 247.82 -128.351 254.871 -109.796 265.321Z" stroke="#5BE7C3" stroke-opacity="0.8" stroke-width="5"/>
<path fill-rule="evenodd" clip-rule="evenodd" d="M-60.613 261.614C-27.1607 279.249 9.89734 292.406 45.9257 304.992C89.6453 320.265 134.461 333.879 180.314 341.505C209.118 346.291 240.875 349.969 269.485 342.015C289.023 336.586 304.137 321.908 321.297 311.809C338.457 301.711 356.312 292.232 374.701 284.331C386.113 279.427 398.39 274.487 411.089 275.135C441.965 276.704 472.804 280.447 503.713 282.263C524.161 283.477 544.65 284.476 565.16 284.177C577.527 283.999 594.518 284.727 605.468 278.351C617.571 271.299 553.127 211.09 547.036 204.314C531.765 187.322 513.273 164.771 516.226 140.605C519.05 117.504 531.29 100.257 545.134 82.1563C552.99 71.8599 578.185 44.3529 568.848 30.9614C563.514 23.3069 545.932 25.9568 537.579 26.4787C521.118 27.5063 504.747 29.7153 488.372 31.633C464.497 34.4124 439.964 38.705 415.985 39.9632C399.288 40.8371 382.491 39.6679 365.765 39.6436C341.782 39.6112 317.799 39.7892 293.816 39.9996C273.678 40.1776 253.371 39.9996 233.304 41.8931C220.829 43.0582 211.359 45.6758 202.411 53.0715C194.625 59.5042 182.877 63.2708 172.953 67.3611C156.562 74.1134 139.956 80.3722 123.404 86.7321C88.7479 100.051 53.6954 113.09 20.5243 129.734C5.38189 137.328 -20.0774 147.961 -23.6294 166.373C-24.9112 173.012 -25.854 175.88 -32.47 179.655C-41.8607 185.012 -53.1079 187.427 -63.6439 189.527C-88.2059 194.422 -113.479 193.69 -138 198.528C-147.986 200.523 -161.024 204.828 -149.623 214.683C-136.321 226.209 -116.957 232.545 -101.02 239.666C-93.0646 243.218 -84.869 246.543 -77.3143 250.88C-71.5129 254.222 -66.5467 258.507 -60.613 261.614Z" stroke="#5ACEF2" stroke-width="5"/>
<path fill-rule="evenodd" clip-rule="evenodd" d="M2.74657 256.108C33.6524 270.431 67.217 280.846 100.179 290.234C136.79 300.648 174.285 309.274 212.275 312.944C238.508 315.487 266.458 316.237 291.918 308.455C308.019 303.532 318.935 293.178 332.79 284.496C353.701 271.372 376.325 260.974 401.447 263.505C429.611 266.335 457.868 268.459 486.217 269.876C503.317 270.732 520.483 271.372 537.604 270.776C548.429 270.403 562.375 269.774 571.792 264.969C584.392 258.533 537.064 209.56 531.164 202.422C516.533 184.72 505.807 166.146 499.54 144.215C494.429 126.318 504.87 112.25 515.641 98.8631C522.337 90.5495 543.975 69.6397 537.2 58.8442C533.484 52.8909 521.239 53.1991 514.662 52.8949C502.128 52.319 489.54 52.9193 477.006 53.1829C458.498 53.5884 438.797 50.8024 420.446 53.045C379.776 58.0088 339.21 62.3075 298.288 65.71C275.73 67.5836 253.036 69.2869 230.68 72.9003C222.655 74.198 214.365 75.5728 206.76 78.5089C201.868 80.3947 199.201 83.6066 195.072 86.2426C175.387 98.79 149.692 105.246 127.522 113.288C98.0486 123.978 68.4184 134.502 39.7295 147.131C24.6399 153.773 3.56401 161.406 -6.81913 174.963C-9.95678 179.059 -8.61915 182.336 -10.5926 186.273C-12.8632 190.816 -19.7619 192.17 -24.2166 193.435C-34.3272 196.311 -76.6483 200.658 -57.1454 217.524C-47.8398 225.558 -35.9828 230.713 -25.4923 237.027C-21.6941 239.314 -17.9908 241.614 -14.8243 244.7C-9.52742 249.875 -4.30902 252.827 2.74657 256.108Z" stroke="#F1B170" stroke-width="5"/>
<path fill-rule="evenodd" clip-rule="evenodd" d="M70.2563 249.906C131.269 273.08 202.772 288.868 269.291 285.809C291.411 284.789 315.211 281.381 334.386 269.721C345.692 262.834 354.728 255.06 368.309 252.572C378.114 250.777 388.672 252.815 398.534 253.552C412.819 254.622 427.112 255.578 441.418 256.352C459.153 257.296 476.946 258.025 494.715 257.636C507.411 257.357 524.944 257.673 535.973 250.988C549.141 243.015 515.623 205.612 510.907 198.948C499.476 182.795 491.463 167.145 488.567 147.678C487.715 142.006 484.844 136.192 485.216 130.476C485.605 124.637 489.275 119.44 492.663 114.849C497.094 108.833 512.467 94.5641 508.065 87.227C505.632 83.1757 496.502 82.6652 491.769 81.8063C482.891 80.1857 473.885 79.3147 464.953 78.0263C449.8 75.8305 434.753 68.6798 419.546 68.8823C378.652 69.4171 337.166 81.8468 297.091 88.6734C273.266 92.745 249.28 96.4399 225.745 101.954C218.298 103.7 210.628 105.507 203.55 108.468C198.61 110.535 195.437 114.217 190.862 116.531C173.317 125.415 153.141 130.808 134.301 136.788C109.843 144.566 85.3025 152.11 61.0143 160.391C45.7902 165.581 26.214 170.147 13.0956 179.773C3.5144 186.802 10.0632 188.905 15.1186 195.452C17.7001 198.79 17.1044 202.08 18.2255 205.86C19.8265 211.256 24.3524 215.141 28.5969 218.634C34.4507 223.459 42.2489 227.433 47.0354 233.348C48.7233 235.431 48.6447 238.015 50.0099 239.83C53.9814 245.117 64.5183 247.727 70.2563 249.906Z" stroke="#FF8062" stroke-width="5"/>
<path fill-rule="evenodd" clip-rule="evenodd" d="M135.125 241.65C184.643 256.22 239.74 264.516 292.083 260.665C310.295 259.324 328.618 256.207 345.582 249.362C353.301 246.258 359.095 242.797 367.552 242.611C387.176 242.181 406.862 243.684 426.482 244.045C440.522 244.305 454.633 244.398 468.641 243.291C478.007 242.554 490.672 241.67 498.345 236.041C509.495 227.842 489.367 199.971 485.271 192.271C478.482 179.501 471.746 165.304 474.439 150.528C475.265 146.009 476.727 142.017 476.917 137.409C477.098 133.45 476.59 129.794 478.023 126.009C479.795 121.316 487.674 114.033 484.965 109.713C483.119 106.762 477.643 106.624 474.001 105.68C468.094 104.149 462.325 102.14 456.756 99.6739C450.892 97.0639 445.899 93.0315 439.824 90.8754C429.963 87.3819 418.924 87.0537 408.559 87.0693C367.201 87.1347 325.318 95.1308 285.009 103.492C264.018 107.844 242.912 112.485 222.512 119.087C216.317 121.093 209.297 123.107 203.85 126.811C200.451 129.117 198.147 132.007 194.286 133.741C161.302 148.55 123.17 154.05 88.1546 164.745C79.0405 167.529 28.5312 181.596 54.9401 194.829C70.9837 202.869 87.9357 206.525 102.575 217.524C107.035 220.867 110.009 223.635 111.751 228.738C112.899 232.134 110.137 230.412 113.994 233.962C118.672 238.229 129.356 239.952 135.125 241.65Z" stroke="#F1B170" stroke-width="5"/>
<path fill-rule="evenodd" clip-rule="evenodd" d="M186.612 233.035C244.587 244.927 305.982 245.493 364.872 234.95C379.717 232.295 395.167 232.93 410.195 232.255C424.797 231.608 450.757 232.954 461.362 221.951C469.052 213.974 460.708 197.023 457.821 188.1C454.144 176.733 450.931 164.991 456.968 153.951C460.505 147.486 465.35 141.332 469.143 134.927C470.957 131.868 474.692 127.18 473.135 124.283C470.559 119.503 458.509 117.49 452.662 115.236C433.973 108.031 414.183 106.192 394.203 106.244C357.298 106.338 320.202 111.284 284.001 117.992C267.346 121.079 250.459 124.372 234.395 129.738C225.306 132.773 218.602 138.628 209.922 142.099C181.974 153.284 151.947 159.261 123.519 169.488C115.291 172.45 84.5559 182.31 100.039 193.935C115.03 205.189 136.895 203.852 152.481 214.439C154.246 215.651 156.428 217.102 157.451 219.061C158.055 220.233 156.991 222.464 157.451 223.131C162.238 230.376 179.253 231.528 186.612 233.035Z" stroke="#5ACEF2" stroke-width="5"/>
<path fill-rule="evenodd" clip-rule="evenodd" d="M224.173 225.175C253.916 229.173 284.313 230.164 314.556 230.416C331.088 230.554 349.25 231.586 365.426 227.483C375.362 224.956 384.959 222.746 395.201 221.153C406.222 219.438 423.967 218.191 430.678 208.899C435.691 201.956 432.255 187.683 432.073 179.241C431.878 169.981 433.816 163.115 440.486 156.489C444.68 152.316 463.919 137.17 461.695 132.802C459.58 128.642 446.174 128.004 440.378 126.923C422.058 123.494 403.494 122.3 384.859 122.487C355.999 122.771 327.03 125.656 298.621 130.613C286.875 132.672 274.737 134.805 263.517 138.921C255.961 141.696 249.66 146.616 242.154 149.484C220.658 157.712 197.929 163.298 176.359 171.676C169.437 174.369 146.882 181.54 152.289 192.591C156.797 201.818 172.132 204.625 179.667 210.809C192.485 221.356 207.828 222.981 224.173 225.175Z" stroke="#5ACEF2" stroke-width="5"/>
<path fill-rule="evenodd" clip-rule="evenodd" d="M242.91 219.873C266.504 222.519 290.646 223.677 314.586 223.733C330.036 223.77 346.336 223.976 361.497 220.573C369.113 218.865 375.731 214.871 382.938 212.022C390.36 209.092 400.603 205.822 403.811 199.104C406.825 192.791 405.699 183.58 408.346 175.967C410.701 169.213 415.628 165.041 420.935 160.476C424.316 157.558 441.679 144.928 439.671 142.139C437.519 139.153 427.091 139.395 421.664 138.983C406.714 137.825 391.711 137.457 376.72 137.878C356.26 138.493 335.644 140.209 315.538 144.094C301.276 146.846 290.518 153.402 277.22 158.21C259.993 164.454 242.147 169.391 225.085 176.222C216.583 179.626 203.998 184.005 199.644 192.791C197.97 196.158 196.346 204.721 198.209 208.088C200.448 212.135 208.781 213.851 212.715 214.891C222.57 217.485 232.882 218.747 242.91 219.873Z" stroke="#FF8062" stroke-width="5"/>
</g>
</svg>
