<svg width="14" height="14" viewBox="0 0 14 14" fill="none" xmlns="http://www.w3.org/2000/svg">
<g clip-path="url(#clip0)">
<path d="M0.583313 2.33337V5.83337H4.08331" stroke="white" stroke-width="1.5" stroke-linecap="round" stroke-linejoin="round"/>
<path d="M13.4167 11.6666V8.16663H9.91669" stroke="white" stroke-width="1.5" stroke-linecap="round" stroke-linejoin="round"/>
<path d="M11.9525 5.24996C11.6566 4.41392 11.1538 3.66645 10.491 3.07729C9.8281 2.48813 9.0268 2.07649 8.16182 1.88078C7.29684 1.68507 6.39638 1.71166 5.54446 1.95808C4.69254 2.2045 3.91692 2.66271 3.28999 3.28996M13.4167 8.16663L10.71 10.71C10.083 11.3372 9.30743 11.7954 8.45551 12.0418C7.60359 12.2883 6.70313 12.3149 5.83815 12.1191C4.97317 11.9234 4.17187 11.5118 3.50901 10.9226C2.84615 10.3335 2.34333 9.58601 2.04749 8.74996" stroke="white" stroke-width="1.5" stroke-linecap="round" stroke-linejoin="round"/>
</g>
<defs>
<clipPath id="clip0">
<rect width="14" height="14" fill="white"/>
</clipPath>
</defs>
</svg>
