<svg width="134" height="134" viewBox="0 0 134 134" fill="none" xmlns="http://www.w3.org/2000/svg">
<path fill-rule="evenodd" clip-rule="evenodd" d="M21.6174 54.7308C25.6363 39.8415 36.7118 27.8685 51.2463 22.7063C51.7656 22.522 52.0399 21.9589 51.8532 21.4277C51.6669 20.9106 51.0959 20.6366 50.5746 20.8209C35.4243 26.2052 23.8761 38.685 19.6856 54.2074C19.6575 54.3086 19.6475 54.4111 19.6513 54.509C19.6678 54.9327 19.9569 55.3177 20.3898 55.435C20.9238 55.5784 21.472 55.2629 21.6174 54.7308ZM27.4107 56.2991C30.917 43.3091 40.5787 32.8641 53.2574 28.3604C53.7766 28.1762 54.0508 27.6091 53.8642 27.0819C53.6779 26.5628 53.1069 26.2907 52.5857 26.4751C39.2911 31.2009 29.1587 42.1525 25.4789 55.7757C25.4527 55.8748 25.4427 55.9772 25.4465 56.0752C25.463 56.5008 25.7501 56.884 26.1831 57.0033C26.717 57.1466 27.2652 56.8311 27.4107 56.2991ZM15.8241 53.1626C20.3578 36.3759 32.847 22.8748 49.2333 17.0522C49.7524 16.8659 50.0289 16.3067 49.8401 15.7736C49.6537 15.2525 49.0828 14.9824 48.5616 15.1668C31.5594 21.2095 18.5976 35.2194 13.8924 52.6412C13.8643 52.7403 13.8542 52.8428 13.8581 52.9407C13.8746 53.3664 14.1637 53.7495 14.5966 53.8688C15.1286 54.0122 15.6788 53.6966 15.8241 53.1626ZM114.312 79.7907C114.458 79.2526 114.138 78.7086 113.608 78.5631C113.074 78.4197 112.526 78.7372 112.383 79.2672C108.362 94.1585 97.2861 106.13 82.7536 111.292C82.3312 111.444 82.0727 111.849 82.0892 112.274C82.093 112.372 82.1109 112.472 82.1468 112.57C82.3311 113.09 82.9021 113.362 83.4233 113.177C98.5737 107.795 110.122 95.3131 114.312 79.7907ZM108.517 78.2265C108.666 77.6843 108.345 77.1444 107.813 76.9989C107.279 76.8555 106.731 77.171 106.587 77.703C103.079 90.691 93.4192 101.132 80.7425 105.638C80.3201 105.788 80.0616 106.194 80.0782 106.62C80.0819 106.716 80.0999 106.817 80.1357 106.916C80.3201 107.437 80.891 107.707 81.4122 107.523C94.7069 102.799 104.839 91.8456 108.517 78.2265ZM85.4344 118.833C102.439 112.789 115.4 98.7807 120.106 81.3589C120.255 80.8167 119.933 80.2768 119.401 80.1313C118.867 79.988 118.319 80.3015 118.176 80.8354C113.64 97.6262 101.151 111.125 84.7647 116.948C84.3422 117.098 84.0837 117.503 84.1003 117.928C84.1041 118.026 84.122 118.128 84.1579 118.226C84.3422 118.746 84.9132 119.018 85.4344 118.833ZM65.0015 67.0777C64.9586 65.9745 65.8192 65.0444 66.9223 65.0015C68.0235 64.9587 68.9556 65.8192 68.9985 66.9224C69.0413 68.0235 68.1788 68.9557 67.0776 68.9985C65.9745 69.0414 65.0443 68.1788 65.0015 67.0777ZM70.997 66.8447C70.9112 64.6364 69.051 62.9173 66.8447 63.003C64.6364 63.0888 62.9172 64.947 63.003 67.1553C63.0887 69.3616 64.947 71.0828 67.1553 70.997C69.3616 70.9113 71.0827 69.051 70.997 66.8447ZM49.0136 67.6989C48.6282 57.7804 56.3826 49.399 66.3011 49.0136C76.2176 48.6283 84.601 56.3826 84.9864 66.3011C85.3717 76.2176 77.6154 84.6011 67.6989 84.9864C57.7804 85.3718 49.3989 77.6154 49.0136 67.6989ZM88.9834 66.1458C88.5117 54.005 78.2866 44.5449 66.1458 45.0166C54.003 45.4884 44.5448 55.7134 45.0166 67.8542C45.4883 79.995 55.7113 89.4552 67.8542 88.9834C79.995 88.5117 89.4552 78.2867 88.9834 66.1458ZM7.04524 69.3296C5.7607 36.2706 31.6093 8.32987 64.6704 7.04525C97.7294 5.76071 125.67 31.6113 126.955 64.6704C128.239 97.7295 102.389 125.67 69.3296 126.955C36.2685 128.239 8.32978 102.389 7.04524 69.3296ZM130.952 64.5151C129.579 29.1957 99.8344 1.6759 64.5151 3.04827C29.1937 4.42071 1.67589 34.1656 3.04826 69.4849C4.42063 104.804 34.1636 132.324 69.4849 130.952C104.804 129.579 132.324 99.8344 130.952 64.5151Z" fill="white"/>
</svg>
