<svg width="256" height="256" viewBox="0 0 256 256" fill="none" xmlns="http://www.w3.org/2000/svg">
<path fill-rule="evenodd" clip-rule="evenodd" d="M38.256 99.956C47.444 70.512 70.508 47.444 99.956 38.256C101.008 37.928 101.6 36.824 101.268 35.748C100.936 34.7 99.816 34.108 98.76 34.436C68.064 44.02 44.016 68.064 34.436 98.76C34.372 98.96 34.344 99.164 34.344 99.36C34.344 100.208 34.892 101 35.748 101.268C36.804 101.596 37.924 101.008 38.256 99.956ZM49.712 103.54C57.728 77.852 77.848 57.728 103.536 49.712C104.588 49.384 105.18 48.272 104.848 47.204C104.516 46.152 103.396 45.564 102.34 45.892C75.404 54.304 54.304 75.404 45.892 102.344C45.832 102.54 45.804 102.744 45.804 102.94C45.804 103.792 46.348 104.58 47.204 104.852C48.26 105.18 49.38 104.592 49.712 103.54ZM26.8 96.372C37.164 63.176 63.172 37.164 96.372 26.8C97.424 26.468 98.02 25.372 97.684 24.292C97.352 23.236 96.232 22.652 95.176 22.98C60.728 33.736 33.736 60.728 22.98 95.18C22.916 95.376 22.888 95.58 22.888 95.776C22.888 96.628 23.436 97.416 24.292 97.688C25.344 98.016 26.468 97.428 26.8 96.372ZM221.56 157.236C221.892 156.172 221.296 155.06 220.248 154.728C219.192 154.4 218.072 154.992 217.744 156.04C208.552 185.488 185.488 208.552 156.044 217.74C155.188 218.012 154.64 218.8 154.64 219.652C154.64 219.848 154.668 220.048 154.732 220.248C155.06 221.3 156.18 221.888 157.236 221.56C187.932 211.98 211.98 187.932 221.56 157.236ZM210.1 153.66C210.44 152.588 209.84 151.484 208.788 151.152C207.732 150.824 206.612 151.412 206.284 152.464C198.264 178.148 178.148 198.264 152.464 206.284C151.608 206.552 151.06 207.344 151.06 208.196C151.06 208.388 151.088 208.592 151.152 208.792C151.48 209.848 152.6 210.432 153.656 210.104C180.592 201.696 201.692 180.592 210.1 153.66ZM160.816 233.02C195.268 222.26 222.26 195.272 233.016 160.82C233.356 159.748 232.756 158.644 231.704 158.312C230.648 157.984 229.528 158.568 229.2 159.624C218.832 192.828 192.824 218.836 159.624 229.2C158.768 229.468 158.22 230.256 158.22 231.108C158.22 231.304 158.248 231.508 158.312 231.708C158.64 232.76 159.76 233.348 160.816 233.02ZM124 128C124 125.792 125.792 124 128 124C130.204 124 132 125.792 132 128C132 130.204 130.204 132 128 132C125.792 132 124 130.204 124 128ZM136 128C136 123.58 132.416 120 128 120C123.58 120 120 123.58 120 128C120 132.416 123.58 136 128 136C132.416 136 136 132.416 136 128ZM92 128C92 108.148 108.148 92 128 92C147.848 92 164 108.148 164 128C164 147.848 147.848 164 128 164C108.148 164 92 147.848 92 128ZM172 128C172 103.7 152.3 84 128 84C103.696 84 84 103.7 84 128C84 152.3 103.696 172 128 172C152.3 172 172 152.3 172 128ZM7.99999 128C8 61.832 61.828 8 128 8C194.168 8 248 61.832 248 128C248 194.168 194.168 248 128 248C61.828 248 7.99999 194.168 7.99999 128ZM256 128C256 57.308 198.692 5.12438e-06 128 2.03434e-06C57.304 -1.05588e-06 -4.41236e-06 57.308 -7.50241e-06 128C-1.05925e-05 198.692 57.304 256 128 256C198.692 256 256 198.692 256 128Z" fill="white"/>
</svg>
